<svg height="471pt" viewBox="0 0 471 471.19702" width="471pt" xmlns="http://www.w3.org/2000/svg"><path d="m294.496094 7.996094c5.871094 20.554687 8.832031 41.828125 8.800781 63.199218 0 128.132813-103.871094 232-232 232-21.375.035157-42.648437-2.929687-63.203125-8.796874 30.433594 107.550781 133.230469 178.113281 244.53125 167.855468 111.304688-10.257812 199.46875-98.425781 209.726562-209.726562 10.261719-111.304688-60.304687-214.097656-167.855468-244.53125zm0 0" fill="#9bc9ff"/><path d="m231.296875 471.195312c-107.292969-.226562-201.46875-71.453124-230.898437-174.628906-.789063-2.792968 0-5.796875 2.054687-7.84375s5.0625-2.820312 7.851563-2.023437c19.832031 5.667969 40.363281 8.527343 60.992187 8.496093 123.652344-.140624 223.859375-100.34375 224-224 .03125-20.625-2.832031-41.15625-8.496094-60.992187-.800781-2.789063-.027343-5.792969 2.019531-7.847656 2.050782-2.058594 5.050782-2.84375 7.84375-2.054688 115.214844 32.671875 188.710938 145.277344 172.246094 263.894531-16.46875 118.621094-117.859375 206.949219-237.613281 207zm-211.25-165.527343c34.695313 98.449219 132.792969 159.882812 236.511719 148.117187 103.714844-11.765625 185.558594-93.609375 197.324218-197.328125 11.765626-103.714843-49.667968-201.8125-148.117187-236.507812 3.691406 16.832031 5.542969 34.015625 5.53125 51.246093-.152344 132.488282-107.515625 239.851563-240 240-17.234375.015626-34.417969-1.835937-51.25-5.527343zm0 0" fill="#1e81ce"/></svg>