<svg height="479pt" viewBox="0 -71 479.88592 479" width="479pt" xmlns="http://www.w3.org/2000/svg"><path d="m391.839844 168.542969c-1.359375 0-2.71875 0-4 .078125 2.636718-10.488282 3.980468-21.261719 4-32.078125 0-70.691407-57.308594-128-128-128s-128 57.308593-128 128c0 1.839843 0 3.679687.160156 5.519531-10.320312-3.679688-21.203125-5.550781-32.160156-5.519531-53.019532 0-96 42.980469-96 96s42.980468 96 96 96h288c44.183594 0 80-35.816407 80-80 0-44.183594-35.816406-80-80-80zm0 0" fill="#9bc9ff"/><path d="m391.839844 336.542969h-288c-40.027344-.0625-76.46875-23.089844-93.703125-59.21875-17.238281-36.125-12.210938-78.9375 12.925781-110.089844s65.917969-45.113281 104.875-35.898437c2.78125-74.082032 64.386719-132.289063 138.507812-130.867188 74.121094 1.417969 133.449219 61.941406 133.394532 136.074219-.007813 8.109375-.726563 16.207031-2.144532 24.191406 47.375 3.136719 83.722657 43.285156 82.140626 90.738281-1.578126 47.453125-40.519532 85.09375-87.996094 85.070313zm-288-192c-48.601563 0-88 39.398437-88 88 0 48.601562 39.398437 88 88 88h288c39.765625 0 72-32.234375 72-72s-32.234375-72-72-72c-1.207032 0-2.398438 0-3.511719.0625-2.546875.15625-5.011719-.910157-6.640625-2.871094s-2.226562-4.582031-1.609375-7.054687c2.480469-9.855469 3.742187-19.976563 3.761719-30.136719 0-66.273438-53.726563-120-120-120-66.273438 0-120 53.726562-120 120 0 1.601562 0 3.199219.128906 4.800781.234375 2.714844-.929688 5.367188-3.085938 7.03125-2.160156 1.664062-5.019531 2.113281-7.585937 1.191406-9.457031-3.367187-19.421875-5.066406-29.457031-5.023437zm0 0" fill="#1e81ce"/></svg>