<svg height="480pt" viewBox="-28 0 480 480" width="480pt" xmlns="http://www.w3.org/2000/svg"><path d="m417.847656 342.503906-4.144531-15.449218-23.949219 6.417968-15.042968-8.679687 41.28125-11.066407-4.144532-15.453124-56.734375 15.207031-15.050781-8.6875 74.074219-19.855469-4.136719-15.449219-89.527344 23.984375-92.625-53.472656 92.625-53.472656 89.527344 23.984375 4.136719-15.449219-74.074219-19.855469 15.050781-8.6875 56.734375 15.207031 4.144532-15.453124-41.28125-11.066407 15.042968-8.679687 23.949219 6.417968 4.144531-15.449218-8.496094-2.28125 14.34375-8.285156-8-13.859376-14.351562 8.289063 2.28125-8.511719-15.457031-4.136718-6.425781 23.960937-15.039063 8.6875 11.066406-41.289063-15.457031-4.140624-15.207031 56.742187-15.042969 8.6875 19.847656-74.078125-15.453125-4.136719-23.992187 89.527344-92.617188 53.472656v-114.953125l65.535156-65.535156-11.3125-11.3125-54.222656 54.222656v-17.375l41.535156-41.535156-11.3125-11.3125-30.222656 30.222656v-17.375l17.535156-17.535156-11.3125-11.3125-6.222656 6.222656v-8.566406h-16v8.566406l-6.222656-6.222656-11.3125 11.3125 17.535156 17.535156v17.375l-30.222656-30.222656-11.3125 11.3125 41.535156 41.535156v17.375l-54.222656-54.222656-11.3125 11.3125 65.535156 65.535156v114.953125l-92.617187-53.472656-23.992188-89.527344-15.453125 4.136719 19.847656 74.078125-15.039062-8.6875-15.210938-56.742187-15.453124 4.140624 11.0625 41.289063-15.039063-8.6875-6.425781-23.960937-15.457032 4.136718 2.28125 8.511719-14.351562-8.289063-8 13.859376 14.34375 8.285156-8.496094 2.28125 4.144532 15.449218 23.953124-6.417968 15.039063 8.679687-41.28125 11.066407 4.144531 15.453124 56.738282-15.207031 15.046874 8.6875-74.074218 19.855469 4.136718 15.449219 89.527344-23.984375 92.625 53.472656-92.625 53.472656-89.527344-23.984375-4.136718 15.449219 74.074218 19.855469-15.046874 8.6875-56.738282-15.207031-4.144531 15.453124 41.28125 11.066407-15.039063 8.679687-23.953124-6.417968-4.144532 15.449218 8.496094 2.28125-14.34375 8.285156 8 13.859376 14.351562-8.289063-2.28125 8.511719 15.457032 4.136718 6.425781-23.960937 15.039063-8.6875-11.0625 41.289063 15.453124 4.140624 15.210938-56.742187 15.039062-8.6875-19.847656 74.078125 15.453125 4.136719 23.992188-89.527344 92.617187-53.472656v106.953125l-65.535156 65.535156 11.3125 11.3125 54.222656-54.222656v17.375l-41.535156 41.535156 11.3125 11.3125 30.222656-30.222656v17.375l-17.535156 17.535156 11.3125 11.3125 6.222656-6.222656v16.566406h16v-16.566406l6.222656 6.222656 11.3125-11.3125-17.535156-17.535156v-17.375l30.222656 30.222656 11.3125-11.3125-41.535156-41.535156v-17.375l54.222656 54.222656 11.3125-11.3125-65.535156-65.535156v-106.953125l92.617188 53.472656 23.992187 89.527344 15.453125-4.136719-19.847656-74.078125 15.042969 8.6875 15.207031 56.742187 15.457031-4.140624-11.066406-41.289063 15.039063 8.6875 6.425781 23.960937 15.457031-4.136718-2.28125-8.511719 14.351562 8.289063 8-13.859376-14.34375-8.285156zm0 0" fill="#1e81ce"/></svg>