<svg height="479pt" viewBox="0 -27 479.88592 479" width="479pt" xmlns="http://www.w3.org/2000/svg"><path d="m391.839844 168.542969c-1.359375 0-2.71875 0-4 .078125 2.636718-10.488282 3.980468-21.261719 4-32.078125 0-70.691407-57.308594-128-128-128s-128 57.308593-128 128c0 1.839843 0 3.679687.160156 5.519531-40.144531-14.214844-84.859375-.351562-109.921875 34.082031-21.148437 29.230469-24.136719 67.847657-7.738281 99.984375 16.398437 32.140625 49.417968 52.382813 85.5 52.414063h288c44.183594 0 80-35.816407 80-80 0-44.183594-35.816406-80-80-80zm-208 152c-17.671875 0-32-14.328125-32-32s32-80 32-80 32 62.328125 32 80-14.328125 32-32 32zm112 0c-17.671875 0-32-14.328125-32-32s32-80 32-80 32 62.328125 32 80-14.328125 32-32 32zm0 0" fill="#9bc9ff"/><g fill="#1e81ce"><path d="m391.839844 336.542969c-4.417969 0-8-3.582031-8-8s3.582031-8 8-8c39.765625 0 72-32.234375 72-72s-32.234375-72-72-72c-1.207032 0-2.398438 0-3.511719.0625-2.546875.15625-5.011719-.910157-6.640625-2.871094s-2.226562-4.582031-1.609375-7.054687c2.484375-9.855469 3.746094-19.976563 3.761719-30.136719 0-66.273438-53.726563-120-120-120-66.273438 0-120 53.726562-120 120 0 1.601562 0 3.199219.128906 4.839843.230469 2.714844-.9375 5.363282-3.097656 7.023438s-5.019532 2.109375-7.582032 1.183594c-9.449218-3.375-19.414062-5.082032-29.449218-5.046875-48.601563 0-88 39.398437-88 88 0 48.601562 39.398437 88 88 88 4.417968 0 8 3.582031 8 8s-3.582032 8-8 8c-40.027344-.0625-76.46875-23.089844-93.703125-59.21875-17.238281-36.125-12.210938-78.9375 12.925781-110.089844s65.917969-45.113281 104.875-35.898437c2.78125-74.082032 64.386719-132.289063 138.507812-130.867188 74.121094 1.417969 133.449219 61.941406 133.394532 136.074219-.007813 8.109375-.722656 16.207031-2.144532 24.191406 47.375 3.136719 83.722657 43.285156 82.140626 90.738281-1.578126 47.453125-40.519532 85.09375-87.996094 85.070313zm0 0"/><path d="m183.839844 328.542969c-22.082032-.027344-39.972656-17.917969-40-40 0-18.664063 27.390625-72.960938 32.878906-83.65625l7.121094-13.855469 7.121094 13.855469c5.488281 10.695312 32.878906 64.992187 32.878906 83.65625-.027344 22.082031-17.917969 39.972656-40 40zm0-102.039063c-11.199219 23.199219-24 52.671875-24 62.039063 0 13.253906 10.746094 24 24 24s24-10.746094 24-24c0-9.367188-12.800782-38.808594-24-62.039063zm0 0"/><path d="m295.839844 328.542969c-22.082032-.027344-39.972656-17.917969-40-40 0-18.664063 27.390625-72.960938 32.878906-83.65625l7.121094-13.855469 7.121094 13.855469c5.488281 10.695312 32.878906 64.992187 32.878906 83.65625-.027344 22.082031-17.917969 39.972656-40 40zm0-102.039063c-11.199219 23.199219-24 52.671875-24 62.039063 0 13.253906 10.746094 24 24 24s24-10.746094 24-24c0-9.367188-12.800782-38.808594-24-62.039063zm0 0"/><path d="m239.839844 424.542969c-17.671875 0-32-14.328125-32-32 0-14.609375 20.839844-52.472657 25.023437-59.921875l6.976563-12.414063 6.976562 12.414063c4.222656 7.449218 25.023438 45.3125 25.023438 59.921875 0 17.671875-14.328125 32-32 32zm0-71.105469c-7.121094 12.230469-12.503906 25.390625-16 39.105469 0 8.835937 7.164062 16 16 16 8.835937 0 16-7.164063 16-16-3.492188-13.714844-8.875-26.875-16-39.105469zm0 0"/><path d="m143.839844 424.542969c-17.671875 0-32-14.328125-32-32 0-14.609375 20.839844-52.472657 25.023437-59.921875l6.976563-12.414063 6.976562 12.414063c4.222656 7.449218 25.023438 45.3125 25.023438 59.921875 0 17.671875-14.328125 32-32 32zm0-71.105469c-7.121094 12.230469-12.503906 25.390625-16 39.105469 0 8.835937 7.164062 16 16 16 8.835937 0 16-7.164063 16-16-3.492188-13.714844-8.875-26.875-16-39.105469zm0 0"/><path d="m335.839844 424.542969c-17.671875 0-32-14.328125-32-32 0-14.609375 20.800781-52.472657 25.023437-59.921875l6.976563-12.414063 6.976562 12.414063c4.222656 7.449218 25.023438 45.3125 25.023438 59.921875 0 17.671875-14.328125 32-32 32zm0-71.105469c-7.121094 12.230469-12.503906 25.390625-16 39.105469 0 8.835937 7.164062 16 16 16 8.835937 0 16-7.164063 16-16-3.492188-13.714844-8.875-26.875-16-39.105469zm0 0"/></g></svg>