<svg height="479pt" viewBox="0 -43 479.88592 479" width="479pt" xmlns="http://www.w3.org/2000/svg"><path d="m391.839844 168.542969c-1.359375 0-2.71875 0-4 .078125 2.636718-10.488282 3.980468-21.261719 4-32.078125 0-70.691407-57.308594-128-128-128s-128 57.308593-128 128c0 1.839843 0 3.679687.160156 5.519531-40.144531-14.214844-84.859375-.351562-109.921875 34.082031-21.148437 29.230469-24.136719 67.847657-7.738281 99.984375 16.398437 32.140625 49.417968 52.382813 85.5 52.414063h70.230468c-8.707031-9.589844-8.234374-24.363281 1.074219-33.375 9.304688-9.011719 24.085938-9.011719 33.390625 0 9.308594 9.011719 9.78125 23.785156 1.074219 33.375h60.460937c-8.707031-9.589844-8.234374-24.363281 1.074219-33.375 9.304688-9.011719 24.085938-9.011719 33.390625 0 9.308594 9.011719 9.78125 23.785156 1.074219 33.375h86.230469c44.183594 0 80-35.816407 80-80 0-44.183594-35.816406-80-80-80zm0 0" fill="#9bc9ff"/><path d="m191.839844 336.542969c6.792968-.011719 13.257812-2.921875 17.769531-8h-35.539063c4.511719 5.078125 10.976563 7.988281 17.769532 8zm0 0" fill="#006df0"/><path d="m287.839844 336.542969c6.792968-.011719 13.257812-2.921875 17.769531-8h-35.539063c4.511719 5.078125 10.976563 7.988281 17.769532 8zm0 0" fill="#006df0"/><g fill="#1e81ce"><path d="m391.839844 336.542969c-4.417969 0-8-3.582031-8-8s3.582031-8 8-8c39.765625-.132813 71.890625-32.476563 71.761718-72.238281-.132812-39.765626-32.476562-71.894532-72.242187-71.761719-1.023437 0-2.054687 0-3.03125.0625-2.546875.15625-5.011719-.910157-6.640625-2.871094s-2.226562-4.582031-1.609375-7.054687c2.484375-9.855469 3.746094-19.976563 3.761719-30.136719 0-66.273438-53.726563-120-120-120-66.273438 0-120 53.726562-120 120 0 1.601562 0 3.199219.128906 4.839843.230469 2.714844-.9375 5.363282-3.097656 7.023438s-5.019532 2.109375-7.582032 1.183594c-9.449218-3.375-19.414062-5.082032-29.449218-5.046875-48.601563 0-88 39.398437-88 88 0 48.601562 39.398437 88 88 88 4.417968 0 8 3.582031 8 8s-3.582032 8-8 8c-40.027344-.0625-76.46875-23.089844-93.703125-59.21875-17.238281-36.125-12.210938-78.9375 12.925781-110.089844s65.917969-45.113281 104.875-35.898437c2.78125-74.082032 64.386719-132.289063 138.507812-130.867188 74.121094 1.417969 133.449219 61.941406 133.394532 136.074219-.007813 8.109375-.722656 16.207031-2.144532 24.191406 47.375 3.136719 83.722657 43.285156 82.140626 90.738281-1.578126 47.453125-40.519532 85.09375-87.996094 85.070313zm0 0"/><path d="m239.839844 392.542969c-13.253906 0-24-10.746094-24-24 0-13.253907 10.746094-24 24-24s24 10.746093 24 24c0 13.253906-10.746094 24-24 24zm0-32c-4.417969 0-8 3.582031-8 8s3.582031 8 8 8c4.417968 0 8-3.582031 8-8s-3.582032-8-8-8zm0 0"/><path d="m151.839844 392.542969c-13.253906 0-24-10.746094-24-24 0-13.253907 10.746094-24 24-24s24 10.746093 24 24c0 13.253906-10.746094 24-24 24zm0-32c-4.417969 0-8 3.582031-8 8s3.582031 8 8 8c4.417968 0 8-3.582031 8-8s-3.582032-8-8-8zm0 0"/><path d="m327.839844 392.542969c-13.253906 0-24-10.746094-24-24 0-13.253907 10.746094-24 24-24s24 10.746093 24 24c0 13.253906-10.746094 24-24 24zm0-32c-4.417969 0-8 3.582031-8 8s3.582031 8 8 8c4.417968 0 8-3.582031 8-8s-3.582032-8-8-8zm0 0"/><path d="m191.839844 344.542969c-17.671875 0-32-14.328125-32-32s14.328125-32 32-32 32 14.328125 32 32-14.328125 32-32 32zm0-48c-8.835938 0-16 7.164062-16 16 0 8.835937 7.164062 16 16 16 8.835937 0 16-7.164063 16-16 0-8.835938-7.164063-16-16-16zm0 0"/><path d="m287.839844 344.542969c-17.671875 0-32-14.328125-32-32s14.328125-32 32-32 32 14.328125 32 32-14.328125 32-32 32zm0-48c-8.835938 0-16 7.164062-16 16 0 8.835937 7.164062 16 16 16 8.835937 0 16-7.164063 16-16 0-8.835938-7.164063-16-16-16zm0 0"/></g></svg>