<svg height="480pt" viewBox="0 0 480 480.07904" width="480pt" xmlns="http://www.w3.org/2000/svg"><path d="m56.050781 224.078125h240c2.71875 0 5.359375-.160156 8-.398437 42.417969-4.257813 74.042969-41.027344 71.910157-83.605469-2.132813-42.578125-37.28125-76-79.910157-75.996094-8.199219-.023437-16.355469 1.242187-24.160156 3.761719-2.210937-33.335938-29.691406-59.359375-63.097656-59.757813-33.40625-.398437-61.496094 24.964844-64.503907 58.238281-9.410156-6.703124-20.683593-10.285156-32.238281-10.242187-17.6875.035156-34.324219 8.410156-44.890625 22.597656s-13.824218 32.527344-8.789062 49.484375c-.773438-.070312-1.546875-.097656-2.320313-.082031-26.507812 0-48 21.492187-48 48 0 26.511719 21.492188 48 48 48zm0 0" fill="#9bc9ff"/><path d="m104.050781 424.078125c0 26.511719 21.492188 48 48 48h240c2.71875 0 5.359375-.160156 8-.398437 42.417969-4.257813 74.042969-41.027344 71.910157-83.605469-2.132813-42.578125-37.28125-76-79.910157-75.996094-8.199219-.023437-16.355469 1.242187-24.160156 3.761719-2.210937-33.335938-29.691406-59.359375-63.097656-59.757813-33.40625-.398437-61.496094 24.964844-64.503907 58.238281-9.410156-6.703124-20.683593-10.285156-32.238281-10.242187-17.6875.035156-34.324219 8.410156-44.890625 22.597656s-13.824218 32.527344-8.789062 49.484375c-.773438-.070312-1.546875-.097656-2.320313-.082031-26.507812 0-48 21.492187-48 48zm0 0" fill="#9bc9ff"/><g fill="#1e81ce"><path d="m296.050781 232.078125h-240c-29.484375.007813-53.921875-22.847656-55.886719-52.265625-1.964843-29.417969 19.214844-55.320312 48.4375-59.238281-.367187-2.816407-.550781-5.652344-.550781-8.496094-.003906-21.734375 11.019531-41.984375 29.277344-53.773437 18.257813-11.792969 41.25-13.511719 61.058594-4.570313 8.5-32.414063 38.238281-54.675781 71.734375-53.703125s61.890625 24.921875 68.496094 57.777344c31.8125-6.363282 64.542968 5.289062 85.175781 30.324218 20.628906 25.035157 25.8125 59.390626 13.488281 89.398438s-40.160156 50.800781-72.429688 54.109375c-2.960937.269531-5.839843.4375-8.800781.4375zm-239.375-96h-.625c-22.089843 0-40 17.910156-40 40 0 22.09375 17.910157 40 40 40h240c2.480469 0 4.871094-.152344 7.28125-.367187 38.15625-3.871094 66.578125-36.972657 64.636719-75.277344-1.941406-38.300782-33.566406-68.359375-71.917969-68.355469-7.355469-.023437-14.667969 1.109375-21.671875 3.359375-2.347656.769531-4.921875.410156-6.96875-.972656-2.050781-1.386719-3.34375-3.640625-3.503906-6.105469-1.945312-29.164063-25.988281-51.925781-55.214844-52.269531-29.222656-.347656-53.796875 21.839844-56.433594 50.949218-.257812 2.851563-2.019531 5.347657-4.621093 6.542969-2.601563 1.199219-5.644531.914063-7.976563-.742187-8.066406-5.726563-17.71875-8.789063-27.609375-8.761719-26.5.027344-47.972656 21.503906-48 48-.003906 4.671875.664063 9.320313 1.984375 13.800781.75 2.5625.171875 5.328125-1.542968 7.375-1.710938 2.050782-4.332032 3.109375-6.984376 2.824219-.277343-.015625-.554687-.015625-.832031 0zm0 0"/><path d="m392.050781 480.078125h-240c-29.484375.007813-53.921875-22.847656-55.886719-52.265625-1.964843-29.417969 19.214844-55.320312 48.4375-59.238281-.367187-2.816407-.550781-5.652344-.550781-8.496094-.003906-21.734375 11.019531-41.984375 29.277344-53.773437 18.257813-11.792969 41.25-13.511719 61.058594-4.570313 8.5-32.414063 38.238281-54.675781 71.734375-53.703125s61.890625 24.921875 68.496094 57.777344c31.8125-6.363282 64.542968 5.289062 85.175781 30.324218 20.628906 25.035157 25.8125 59.390626 13.488281 89.398438s-40.160156 50.800781-72.429688 54.109375c-2.960937.269531-5.839843.4375-8.800781.4375zm-239.375-96h-.625c-22.089843 0-40 17.910156-40 40 0 22.09375 17.910157 40 40 40h240c2.480469 0 4.871094-.152344 7.28125-.367187 38.15625-3.871094 66.578125-36.972657 64.636719-75.277344-1.941406-38.300782-33.566406-68.359375-71.917969-68.355469-7.355469-.023437-14.667969 1.109375-21.671875 3.359375-2.347656.769531-4.921875.410156-6.96875-.972656-2.050781-1.386719-3.34375-3.640625-3.503906-6.105469-1.945312-29.164063-25.988281-51.925781-55.214844-52.269531-29.222656-.347656-53.796875 21.839844-56.433594 50.949218-.257812 2.851563-2.019531 5.347657-4.621093 6.542969-2.601563 1.199219-5.644531.914063-7.976563-.742187-8.066406-5.726563-17.71875-8.789063-27.609375-8.761719-26.5.027344-47.972656 21.503906-48 48-.003906 4.671875.664063 9.320313 1.984375 13.800781.75 2.5625.171875 5.328125-1.542968 7.375-1.710938 2.050782-4.332032 3.109375-6.984376 2.824219-.277343-.015625-.554687-.015625-.832031 0zm0 0"/></g></svg>