<svg height="479pt" viewBox="0 0 479 479.98674" width="479pt" xmlns="http://www.w3.org/2000/svg"><path d="m376.492188 103.988281c-10.957032-.03125-21.835938 1.835938-32.160157 5.519531.082031-1.839843.160157-3.679687.160157-5.519531.003906-44.792969-30.96875-83.636719-74.636719-93.601562-1.683594-.398438-3.441407-.71875-5.203125-.960938-2.480469-.480469-4.957032-.800781-7.519532-1.039062-2.878906-.238281-5.757812-.398438-8.640624-.398438-25.820313-.03125-50.566407 10.351563-68.636719 28.796875-6.085938 6.140625-11.257813 13.117188-15.363281 20.722656-.101563.230469-.238282.445313-.398438.640626v.078124c-3.273438 5.933594-5.875 12.210938-7.761719 18.71875-1.589843 5.519532-2.6875 11.167969-3.277343 16.882813-.390626 3.371094-.578126 6.765625-.5625 10.160156-.015626 4.171875.25 8.339844.800781 12.476563-7.921875-3.003906-16.328125-4.523438-24.800781-4.476563-10.742188.003907-21.34375 2.410157-31.039063 7.039063-3.125 1.527344-6.144531 3.265625-9.039063 5.199218-1.710937 1.109376-3.34375 2.339844-4.878906 3.679688-2.730468 2.15625-5.296875 4.507812-7.679687 7.039062-2.304688 2.421876-4.417969 5.015626-6.320313 7.761719-5.695312 8.085938-9.644531 17.265625-11.601562 26.960938-4.625 1.070312-9.109375 2.679687-13.359375 4.796875-5.210938 2.542968-10.054688 5.769531-14.402344 9.601562-3.101563 2.6875-5.914063 5.691406-8.398437 8.960938-14.875 19.3125-17.472657 45.40625-6.699219 67.273437 10.773437 21.867188 33.042969 35.707031 57.417969 35.6875h304c2.722656 0 5.363281-.082031 8-.320312 51.359374-4.203125 90.238281-48.203125 88.089843-99.683594-2.152343-51.484375-44.558593-92.089844-96.089843-91.996094zm0 0" fill="#9bc9ff"/><g fill="#1e81ce"><path d="m376.492188 303.988281h-304c-39.746094-.046875-71.953126-32.253906-72-72-.039063-15.871093 5.21875-31.300781 14.945312-43.839843 2.800781-3.691407 5.976562-7.082032 9.480469-10.113282 4.867187-4.285156 10.285156-7.898437 16.113281-10.746094 3.277344-1.660156 6.695312-3.03125 10.214844-4.101562 2.414062-8.996094 6.390625-17.496094 11.75-25.113281 2.140625-3.078125 4.515625-5.988281 7.105468-8.703125 2.625-2.789063 5.457032-5.375 8.464844-7.746094 1.707032-1.484375 3.519532-2.851562 5.421875-4.078125 3.1875-2.128906 6.511719-4.042969 9.953125-5.726563 15.742188-7.46875 33.46875-9.652343 50.550782-6.234374 0-.527344 0-1.0625 0-1.597657-.023438-3.726562.183593-7.449219.625-11.144531.636718-6.144531 1.824218-12.21875 3.542968-18.152344 1.984375-6.851562 4.703125-13.46875 8.105469-19.738281.1875-.433594.414063-.851563.671875-1.246094l.0625-.089843c4.460938-8.230469 10.070312-15.78125 16.65625-22.429688 21.863281-22.273438 52.566406-33.566406 83.648438-30.769531 2.898437.273437 5.601562.625 8.351562 1.144531 1.601562.214844 3.617188.585938 5.539062 1.039062 45.257813 10.601563 78.109376 49.773438 80.664063 96.183594 37.90625-8.894531 77.609375 4.132813 102.878906 33.753906 25.269531 29.625 31.878907 70.882813 17.117188 106.914063-14.757813 36.035156-48.40625 60.804687-87.199219 64.191406-2.816406.253907-5.695312.34375-8.664062.34375zm-248-184c-9.554688 0-18.984376 2.140625-27.605469 6.261719-2.765625 1.367188-5.4375 2.910156-8 4.625-1.402344.90625-2.738281 1.910156-4 3-2.5625 1.996094-4.96875 4.183594-7.199219 6.542969-2.042969 2.152343-3.917969 4.460937-5.601562 6.90625-5.039063 7.1875-8.542969 15.332031-10.296876 23.933593-.613281 3.046876-2.9375 5.460938-5.960937 6.191407-4.019531.917969-7.914063 2.308593-11.605469 4.144531-4.597656 2.238281-8.875 5.082031-12.714844 8.457031-2.707031 2.335938-5.160156 4.945313-7.328124 7.792969-7.589844 9.757812-11.703126 21.777344-11.6875 34.144531.042968 30.910157 25.089843 55.957031 56 56h304c2.472656 0 4.867187-.074219 7.265624-.289062 47.089844-3.820313 82.765626-44.140625 80.8125-91.347657-1.953124-47.207031-40.832031-84.445312-88.078124-84.363281-10.03125-.039062-19.996094 1.671875-29.445313 5.046875-2.507813.902344-5.300781.496094-7.449219-1.078125-2.148437-1.578125-3.367187-4.125-3.257812-6.785156.074218-1.746094.152344-3.457031.152344-5.183594-.199219-40.984375-28.496094-76.480469-68.40625-85.800781-1.511719-.359375-3.015626-.632812-4.519532-.839844-2.648437-.496094-4.878906-.800781-7.199218-1-2.5625-.207031-5.21875-.359375-7.875-.359375-23.683594-.074219-46.386719 9.449219-62.925782 26.398438-5.550781 5.601562-10.273437 11.96875-14.023437 18.902343l-.265625.496094-.183594.335938c-2.980469 5.410156-5.355469 11.132812-7.082031 17.066406-1.453125 5.074219-2.460938 10.269531-3.007813 15.519531-.359375 3.078125-.527344 6.179688-.511718 9.28125-.019532 3.8125.222656 7.621094.730468 11.398438.382813 2.804687-.746094 5.601562-2.964844 7.355469-2.222656 1.757812-5.203124 2.207031-7.84375 1.1875-7.003906-2.652344-14.433593-3.988282-21.921874-3.941407zm0 0"/><path d="m295.972656 403.988281-27.703125 7.421875-19.777343-11.421875 19.777343-11.417969 27.703125 7.425782c4.261719 1.117187 8.621094-1.417969 9.761719-5.671875 1.136719-4.253907-1.375-8.628907-5.625-9.785157l-12.246094-3.28125 10.980469-6.34375c3.796875-2.222656 5.082031-7.09375 2.882812-10.902343-2.199218-3.808594-7.058593-5.125-10.882812-2.953125l-10.980469 6.34375 3.277344-12.246094c1.144531-4.269531-1.386719-8.65625-5.65625-9.800781-4.265625-1.144531-8.65625 1.386719-9.796875 5.65625l-7.417969 27.703125-19.777343 11.414062v-22.832031l20.28125-20.277344c2.078124-2.007812 2.914062-4.984375 2.183593-7.78125-.734375-2.796875-2.917969-4.980469-5.714843-5.714843-2.796876-.730469-5.773438.105468-7.78125 2.183593l-8.96875 8.96875v-12.6875c0-4.417969-3.582032-8-8-8-4.417969 0-8 3.582031-8 8v12.6875l-8.964844-8.96875c-2.011719-2.078125-4.984375-2.914062-7.78125-2.183593-2.796875.734374-4.980469 2.917968-5.714844 5.714843-.730469 2.796875.101562 5.773438 2.183594 7.78125l20.277344 20.277344v22.832031l-19.773438-11.414062-7.425781-27.703125c-1.144531-4.269531-5.53125-6.800781-9.800781-5.65625-4.265626 1.144531-6.800782 5.53125-5.65625 9.800781l3.28125 12.246094-10.984376-6.34375c-3.820312-2.171875-8.683593-.855469-10.882812 2.953125-2.199219 3.808593-.910156 8.679687 2.882812 10.902343l10.984376 6.34375-12.246094 3.28125c-2.773438.726563-4.945313 2.882813-5.691406 5.652344-.75 2.769532.042968 5.722656 2.070312 7.75 2.03125 2.023438 4.988281 2.808594 7.753906 2.054688l27.707032-7.425782 19.78125 11.417969-19.773438 11.414063-27.707031-7.414063c-4.257813-1.121093-8.621094 1.414063-9.757813 5.667969-1.140625 4.253906 1.375 8.628906 5.625 9.785156l12.246094 3.28125-10.984375 6.34375c-2.496094 1.417969-4.039063 4.066406-4.046875 6.9375-.003906 2.871094 1.527344 5.523438 4.015625 6.953125 2.492187 1.429688 5.554687 1.417969 8.03125-.035156l10.984375-6.34375-3.28125 12.25c-1.144531 4.265625 1.390625 8.65625 5.65625 9.796875.679688.1875 1.378906.277344 2.082031.273438 3.617188-.003907 6.78125-2.433594 7.71875-5.925782l7.417969-27.707031 19.773438-11.421875v22.832031l-20.277344 20.277344c-2.082032 2.011719-2.914063 4.984375-2.183594 7.78125.734375 2.796875 2.917969 4.980469 5.714844 5.714844 2.796875.730469 5.769531-.101563 7.78125-2.183594l8.964844-8.96875v12.691406c0 4.417969 3.582031 8 8 8 4.417968 0 8-3.582031 8-8v-12.691406l8.96875 8.96875c2.007812 2.082031 4.984374 2.914063 7.78125 2.183594 2.796874-.734375 4.980468-2.917969 5.714843-5.714844.730469-2.796875-.105469-5.769531-2.183593-7.78125l-20.28125-20.277344v-22.832031l19.777343 11.414062 7.417969 27.703126c.933594 3.496093 4.101562 5.925781 7.71875 5.929687.703125.003906 1.402344-.085937 2.078125-.273437 4.269531-1.140626 6.800781-5.53125 5.65625-9.796876l-3.277344-12.25 10.980469 6.34375c2.476562 1.453126 5.542969 1.464844 8.03125.035157 2.492188-1.429688 4.023438-4.082031 4.015625-6.953125-.003906-2.871094-1.550781-5.519532-4.046875-6.9375l-10.980469-6.34375 12.246094-3.28125c4.25-1.15625 6.761719-5.53125 5.625-9.785156-1.140625-4.253907-5.5-6.789063-9.761719-5.667969zm0 0"/></g></svg>