<svg height="479pt" viewBox="0 -18 479.88592 479" width="479pt" xmlns="http://www.w3.org/2000/svg"><path d="m391.839844 168.542969c-1.359375 0-2.71875 0-4 .078125 2.636718-10.488282 3.980468-21.261719 4-32.078125 0-70.691407-57.308594-128-128-128s-128 57.308593-128 128c0 1.839843 0 3.679687.160156 5.519531-40.144531-14.214844-84.859375-.351562-109.921875 34.082031-21.148437 29.230469-24.136719 67.847657-7.738281 99.984375 16.398437 32.140625 49.417968 52.382813 85.5 52.414063h41.289062c0-5.96875-3.671875-11.945313-11.035156-22.617188-2.191406-3.175781-1.800781-7.46875.929688-10.199219 2.730468-2.730468 7.023437-3.121093 10.199218-.925781 21.34375 14.710938 23.890625 14.710938 45.234375 0 3.175781-2.195312 7.46875-1.804687 10.199219.925781 2.730469 2.730469 3.121094 7.023438.925781 10.199219-7.359375 10.671875-11.03125 16.648438-11.03125 22.617188h98.578125c0-5.96875-3.671875-11.945313-11.035156-22.617188-2.191406-3.175781-1.800781-7.46875.929688-10.199219 2.730468-2.730468 7.023437-3.121093 10.199218-.925781 21.34375 14.710938 23.890625 14.710938 45.234375 0 3.175781-2.195312 7.46875-1.804687 10.199219.925781 2.730469 2.730469 3.121094 7.023438.925781 10.199219-7.359375 10.671875-11.03125 16.648438-11.03125 22.617188h57.289063c44.183594 0 80-35.816407 80-80 0-44.183594-35.816406-80-80-80zm0 0" fill="#9bc9ff"/><g fill="#1e81ce"><path d="m190.550781 328.542969c0-5.96875 3.671875-11.945313 11.03125-22.617188 2.195313-3.175781 1.804688-7.46875-.925781-10.199219-2.730469-2.730468-7.023438-3.121093-10.199219-.925781-21.34375 14.710938-23.890625 14.710938-45.234375 0-3.175781-2.195312-7.46875-1.804687-10.199218.925781-2.730469 2.730469-3.121094 7.023438-.929688 10.199219 7.363281 10.671875 11.035156 16.648438 11.035156 22.617188s-3.671875 11.945312-11.035156 22.617187c-2.191406 3.175782-1.800781 7.46875.929688 10.199219 2.730468 2.730469 7.023437 3.121094 10.199218.925781 21.34375-14.710937 23.890625-14.710937 45.234375 0 3.175781 2.195313 7.46875 1.804688 10.199219-.925781s3.121094-7.023437.925781-10.199219c-7.34375-10.671875-11.03125-16.648437-11.03125-22.617187zm-22.710937 6.640625c-2.613282.011718-5.210938.375-7.726563 1.078125 1.449219-5.042969 1.449219-10.394531 0-15.4375 5.050781 1.4375 10.402344 1.4375 15.453125 0-1.449218 5.042969-1.449218 10.394531 0 15.4375-2.515625-.703125-5.113281-1.066407-7.726562-1.078125zm0 0"/><path d="m334.550781 328.542969c0-5.96875 3.671875-11.945313 11.03125-22.617188 2.195313-3.175781 1.804688-7.46875-.925781-10.199219-2.730469-2.730468-7.023438-3.121093-10.199219-.925781-21.34375 14.710938-23.890625 14.710938-45.234375 0-3.175781-2.195312-7.46875-1.804687-10.199218.925781-2.730469 2.730469-3.121094 7.023438-.929688 10.199219 7.363281 10.671875 11.035156 16.648438 11.035156 22.617188s-3.671875 11.945312-11.035156 22.617187c-2.191406 3.175782-1.800781 7.46875.929688 10.199219 2.730468 2.730469 7.023437 3.121094 10.199218.925781 21.34375-14.710937 23.890625-14.710937 45.234375 0 3.175781 2.195313 7.46875 1.804688 10.199219-.925781s3.121094-7.023437.925781-10.199219c-7.34375-10.671875-11.03125-16.648437-11.03125-22.617187zm-22.710937 6.640625c-2.613282.011718-5.210938.375-7.726563 1.078125 1.449219-5.042969 1.449219-10.394531 0-15.4375 5.050781 1.4375 10.402344 1.4375 15.453125 0-1.449218 5.042969-1.449218 10.394531 0 15.4375-2.515625-.703125-5.113281-1.066407-7.726562-1.078125zm0 0"/><path d="m267.039062 443.695312c-1.621093 0-3.207031-.488281-4.542968-1.410156-21.34375-14.710937-23.886719-14.710937-45.234375 0-3.175781 2.195313-7.46875 1.804688-10.199219-.925781s-3.121094-7.023437-.925781-10.199219c14.710937-21.34375 14.710937-23.890625 0-45.234375-2.195313-3.175781-1.804688-7.46875.925781-10.199219 2.730469-2.730468 7.023438-3.121093 10.199219-.925781 21.347656 14.710938 23.890625 14.710938 45.234375 0 3.179687-2.195312 7.46875-1.804687 10.199218.925781 2.730469 2.730469 3.121094 7.023438.929688 10.199219-14.714844 21.34375-14.714844 23.890625 0 45.234375 1.683594 2.445313 1.871094 5.625.492188 8.253906-1.382813 2.628907-4.105469 4.277344-7.078126 4.28125zm-27.199218-28.511718c2.613281.011718 5.210937.375 7.726562 1.078125-1.453125-5.042969-1.453125-10.394531 0-15.4375-5.050781 1.4375-10.402344 1.4375-15.453125 0 1.453125 5.042969 1.453125 10.394531 0 15.4375 2.515625-.703125 5.113281-1.066407 7.726563-1.078125zm0 0"/><path d="m391.839844 336.542969h-24c-4.417969 0-8-3.582031-8-8s3.582031-8 8-8h24c39.765625-.132813 71.890625-32.476563 71.761718-72.238281-.132812-39.765626-32.476562-71.894532-72.242187-71.761719-1.023437 0-2.054687 0-3.03125.0625-2.550781.175781-5.027344-.894531-6.648437-2.871094-1.628907-1.960937-2.222657-4.582031-1.601563-7.054687 2.484375-9.855469 3.746094-19.976563 3.761719-30.136719 0-66.273438-53.726563-120-120-120-66.273438 0-120 53.726562-120 120 0 1.601562 0 3.199219.128906 4.839843.230469 2.714844-.9375 5.363282-3.097656 7.023438s-5.019532 2.109375-7.582032 1.183594c-9.449218-3.375-19.414062-5.082032-29.449218-5.046875-48.601563 0-88 39.398437-88 88 0 48.601562 39.398437 88 88 88h8c4.417968 0 8 3.582031 8 8s-3.582032 8-8 8h-8c-40.027344-.0625-76.46875-23.089844-93.703125-59.21875-17.238281-36.125-12.210938-78.9375 12.925781-110.089844s65.917969-45.113281 104.875-35.898437c2.78125-74.082032 64.386719-132.289063 138.507812-130.867188 74.121094 1.417969 133.449219 61.941406 133.394532 136.074219-.007813 8.109375-.722656 16.207031-2.144532 24.191406 47.375 3.136719 83.722657 43.285156 82.140626 90.738281-1.578126 47.453125-40.519532 85.09375-87.996094 85.070313zm0 0"/></g></svg>