<svg height="479pt" viewBox="0 -13 479.88592 479" width="479pt" xmlns="http://www.w3.org/2000/svg"><path d="m391.839844 168.542969c-1.359375 0-2.71875 0-4 .078125 2.636718-10.488282 3.980468-21.261719 4-32.078125 0-70.691407-57.308594-128-128-128s-128 57.308593-128 128c0 1.839843 0 3.679687.160156 5.519531-40.144531-14.214844-84.859375-.351562-109.921875 34.082031-21.148437 29.230469-24.136719 67.847657-7.738281 99.984375 16.398437 32.140625 49.417968 52.382813 85.5 52.414063h123.734375l4.265625-32h-64l96-136-16 96h64l-43.199219 72h123.199219c44.183594 0 80-35.816407 80-80 0-44.183594-35.816406-80-80-80zm0 0" fill="#9bc9ff"/><g fill="#1e81ce"><path d="m202.800781 453.832031 19.902344-149.289062h-70.304687l125.089843-177.199219-20.199219 121.199219h68.679688zm-19.519531-165.289062h57.695312l-12.097656 90.710937 68.832032-114.710937h-59.320313l11.800781-70.800781zm0 0"/><path d="m391.839844 336.542969h-64c-4.417969 0-8-3.582031-8-8s3.582031-8 8-8h64c39.765625 0 72-32.234375 72-72s-32.234375-72-72-72c-1.207032 0-2.398438 0-3.511719.0625-2.550781.1875-5.03125-.886719-6.640625-2.871094-1.628906-1.960937-2.222656-4.582031-1.601562-7.054687 2.476562-9.855469 3.738281-19.976563 3.753906-30.136719 0-66.273438-53.726563-120-120-120-66.273438 0-120 53.726562-120 120 0 1.601562 0 3.199219.128906 4.800781.234375 2.714844-.929688 5.367188-3.085938 7.03125-2.160156 1.664062-5.019531 2.113281-7.585937 1.191406-9.457031-3.367187-19.421875-5.066406-29.457031-5.023437-48.601563 0-88 39.398437-88 88 0 48.601562 39.398437 88 88 88h32c4.417968 0 8 3.582031 8 8s-3.582032 8-8 8h-32c-40.027344-.0625-76.46875-23.089844-93.703125-59.21875-17.238281-36.125-12.210938-78.9375 12.925781-110.089844s65.917969-45.113281 104.875-35.898437c2.78125-74.082032 64.386719-132.289063 138.507812-130.867188 74.121094 1.417969 133.449219 61.941406 133.394532 136.074219-.007813 8.109375-.726563 16.207031-2.144532 24.191406 47.375 3.136719 83.722657 43.285156 82.140626 90.738281-1.578126 47.453125-40.519532 85.09375-87.996094 85.070313zm0 0"/></g></svg>