<svg height="479pt" viewBox="0 -71 479.91074 479" width="479pt" xmlns="http://www.w3.org/2000/svg"><path d="m391.863281 168.554688c-1.359375 0-2.71875 0-4 .082031 2.640625-10.492188 3.984375-21.265625 4-32.082031 0-70.691407-57.304687-128-128-128-70.691406 0-128 57.308593-128 128 0 1.839843 0 3.679687.160157 5.519531-40.144532-14.214844-84.859376-.351563-109.917969 34.082031-21.152344 29.230469-24.140625 67.847656-7.742188 99.988281 16.398438 32.136719 49.421875 52.378907 85.5 52.410157h288c44.183594 0 80-35.816407 80-80 0-44.183594-35.816406-80-80-80zm0 0" fill="#9bc9ff"/><g fill="#1e81ce"><path d="m279.863281 272.554688h-208c-4.417969 0-8-3.582032-8-8 0-4.417969 3.582031-8 8-8h208c4.417969 0 8 3.582031 8 8 0 4.417968-3.582031 8-8 8zm0 0"/><path d="m311.863281 304.554688h-208c-4.417969 0-8-3.582032-8-8 0-4.417969 3.582031-8 8-8h208c4.417969 0 8 3.582031 8 8 0 4.417968-3.582031 8-8 8zm0 0"/><path d="m279.863281 336.554688h-208c-4.417969 0-8-3.582032-8-8 0-4.417969 3.582031-8 8-8h208c4.417969 0 8 3.582031 8 8 0 4.417968-3.582031 8-8 8zm0 0"/><path d="m391.863281 336.554688h-64c-4.417969 0-8-3.582032-8-8 0-4.417969 3.582031-8 8-8h64c39.765625 0 72-32.234376 72-72 0-39.765626-32.234375-72-72-72-1.207031 0-2.398437 0-3.511719.066406-2.542968.128906-5-.9375-6.648437-2.882813-1.625-1.960937-2.21875-4.578125-1.597656-7.046875 2.480469-9.855468 3.742187-19.976562 3.757812-30.136718 0-66.273438-53.726562-120-120-120-66.273437 0-120 53.726562-120 120 0 1.601562 0 3.199218.128907 4.847656.230468 2.714844-.9375 5.359375-3.097657 7.019531-2.164062 1.65625-5.019531 2.105469-7.582031 1.179687-9.449219-3.375-19.414062-5.082031-29.449219-5.046874-36.660156-.007813-69.484375 22.710937-82.390625 57.023437-12.902344 34.316406-3.183594 73.035156 24.398438 97.183594 2.335937 1.828125 3.46875 4.800781 2.945312 7.71875-.527344 2.921875-2.628906 5.308593-5.453125 6.207031-2.828125.898438-5.921875.15625-8.035156-1.925781-35.855469-31.539063-45.640625-83.4375-23.730469-125.871094 21.90625-42.433594 69.882813-64.507813 116.363282-53.542969 2.785156-74.082031 64.386718-132.285156 138.507812-130.867187s133.449219 61.941406 133.394531 136.074219c-.003906 8.113281-.722656 16.207031-2.144531 24.191406 47.375 3.136718 83.722656 43.285156 82.144531 90.738281-1.582031 47.453125-40.519531 85.097656-88 85.070313zm0 0"/></g></svg>